PathFileType	4	(X/Y/Z)	s08c0303.trc
DataRate	CameraRate	NumFrames	NumMarkers	Units	OrigDataRate	OrigDataStartFrame	OrigNumFrames
200	200	6	50	mm	200	750	2000
Frame#	Time	racr			lacr			c7			jug			rlel			rdr			llel			ldr			s2			lic			ric			lasi			rasi			rpsi			lpsi			rgt			lgt			rth1			rth2			rth3			rth4			rlfc			rmfc			rsh1			rsh2			rsh3			rsh4			rlmal			rmmal			rcal			rtoe			rmt5			lth1			lth2			lth4			lth3			llfc			lmfc			llmal			lmmal			lcal			lmt5			lsh1			lsh2			lsh3			lsh4			ltoe			SBIKE			LBIKE			RBIKE			
		X1	Y1	Z1	X2	Y2	Z2	X3	Y3	Z3	X4	Y4	Z4	X5	Y5	Z5	X6	Y6	Z6	X7	Y7	Z7	X8	Y8	Z8	X9	Y9	Z9	X10	Y10	Z10	X11	Y11	Z11	X12	Y12	Z12	X13	Y13	Z13	X14	Y14	Z14	X15	Y15	Z15	X16	Y16	Z16	X17	Y17	Z17	X18	Y18	Z18	X19	Y19	Z19	X20	Y20	Z20	X21	Y21	Z21	X22	Y22	Z22	X23	Y23	Z23	X24	Y24	Z24	X25	Y25	Z25	X26	Y26	Z26	X27	Y27	Z27	X28	Y28	Z28	X29	Y29	Z29	X30	Y30	Z30	X31	Y31	Z31	X32	Y32	Z32	X33	Y33	Z33	X34	Y34	Z34	X35	Y35	Z35	X36	Y36	Z36	X37	Y37	Z37	X38	Y38	Z38	X39	Y39	Z39	X40	Y40	Z40	X41	Y41	Z41	X42	Y42	Z42	X43	Y43	Z43	X44	Y44	Z44	X45	Y45	Z45	X46	Y46	Z46	X47	Y47	Z47	X48	Y48	Z48	X49	Y49	Z49	X50	Y50	Z50	
750	3.7500	826.349815	1374.180729	-171.318064	766.119385	1366.906801	-479.023423	775.453367	1419.117473	-314.575863	757.721760	1258.320772	-317.155419	742.891079	1159.597922	8.343244	788.469761	887.123951	-54.058306	609.961453	1113.199777	-514.522440	784.655029	915.531404	-434.970043	219.032902	1265.790652	-157.618955	328.031047	1248.914036	-342.251586	419.951453	1232.595316	-41.615790	368.941489	1202.766801	-306.335501	411.499462	1166.593640	-80.235663	268.562485	1295.948979	-108.188069	247.900338	1306.809447	-203.836554	317.343798	1127.545739	9.143211	273.595610	1156.097152	-367.466415	386.142407	968.991407	-7.225377	435.406369	896.054915	-19.672720	438.934147	809.029998	-26.625012	464.614479	907.568620	-37.037448	457.686035	694.570787	-44.088719	427.981471	696.483192	-153.197720	340.574219	629.695779	-14.262443	289.518044	559.221017	-37.696065	211.366993	523.486803	-43.348859	310.547608	541.999665	-68.888259	110.538827	456.998158	-52.817628	138.756825	460.140252	-141.843220	50.027608	505.057937	-104.042672	187.548222	238.398873	-105.534378	117.509315	302.556734	-38.519024	344.326275	1039.512247	-389.252767	411.400509	984.194131	-398.258626	441.362794	1003.953965	-389.924600	441.320153	900.682666	-405.611552	494.783333	779.476500	-394.892977	490.231836	747.669669	-286.316698	318.133404	395.713486	-395.002962	352.001502	409.343858	-310.457239	246.407991	377.513186	-356.941342	444.142096	299.657446	-425.604990	440.142110	660.957559	-419.491182	424.932990	577.913563	-404.019506	370.494649	509.178616	-403.185192	449.447048	570.564520	-373.405274	530.318367	324.498772	-360.952072	-201.067601	919.107807	-229.961965	-10.506357	79.791778	-426.652118	-10.671026	80.082995	-28.350095	
751	3.7550	826.101704	1373.242069	-170.757494	768.277438	1363.089304	-477.796783	776.504617	1416.363647	-313.310428	759.332614	1255.499001	-315.047013	741.491509	1159.286858	9.221659	788.694117	887.088942	-53.427408	610.125005	1111.017717	-515.634979	784.354786	914.376842	-434.486839	218.364456	1263.237343	-158.212496	327.992717	1244.879677	-343.588891	419.003613	1230.254342	-42.890253	368.398848	1199.203794	-307.129941	410.466161	1164.611218	-81.281992	268.401420	1293.101927	-110.714851	247.462354	1303.681391	-204.853461	317.227137	1125.710680	9.086263	272.211835	1151.426696	-367.696204	387.995703	968.915035	-6.405427	438.162787	897.001956	-19.483516	444.361888	810.013015	-25.774869	467.638153	909.257704	-37.172242	465.234417	696.924068	-44.565862	434.912626	698.556468	-153.417870	346.874866	634.308841	-14.647968	294.889174	565.160981	-37.596058	215.284913	531.127823	-43.823623	314.394222	547.436241	-69.449797	113.182194	467.479056	-53.191011	141.675589	469.694187	-141.487015	52.964736	516.255302	-104.363004	188.309567	248.406585	-105.705556	118.804613	313.236318	-38.714693	341.886639	1033.550739	-389.262793	407.766899	976.867920	-397.867294	438.166882	996.006407	-389.631596	436.006088	892.738545	-404.650968	487.732051	770.967990	-393.349123	481.794145	739.758277	-284.920936	316.682095	384.292571	-395.255323	345.760554	395.349817	-317.174986	245.520771	365.797614	-356.750145	443.132897	288.505305	-425.382134	434.866824	651.070729	-418.525748	421.228648	569.156540	-405.529598	367.887050	497.847727	-402.451236	445.062706	561.225103	-371.716379	529.223635	313.206098	-360.299408	-200.866678	919.216746	-229.776179	-10.429324	79.824248	-426.691412	-10.570848	80.088033	-28.376842	
752	3.7600	825.654632	1372.478961	-169.866372	770.554393	1359.818079	-477.525903	777.401331	1414.042293	-312.047890	761.050678	1253.092004	-313.344881	739.884194	1159.343334	10.741030	789.472662	887.249658	-52.312584	610.769275	1108.554741	-516.811417	783.941389	911.922728	-432.223907	217.675105	1260.718286	-159.260586	328.135393	1240.846810	-345.191946	417.942144	1228.268442	-44.242824	368.014963	1195.437757	-308.077322	409.430225	1162.790705	-82.263095	268.227845	1290.519240	-113.709918	244.808526	1301.326450	-204.624462	316.935115	1124.113644	8.953024	271.033645	1146.422967	-368.167861	389.799046	968.716053	-5.472099	441.712205	898.238242	-18.823449	450.004276	811.377658	-25.279271	470.778602	911.250679	-36.986188	473.110566	699.506076	-45.757122	441.788508	701.112979	-154.031624	353.637877	639.290484	-14.915206	299.967121	571.254925	-38.095509	219.336321	539.074686	-44.627806	319.368880	553.306069	-69.731856	116.333965	477.869870	-53.620056	144.987497	479.615418	-141.980578	56.421403	527.276986	-104.525389	189.670523	258.352063	-106.049573	120.721203	323.942403	-38.778266	339.332043	1027.342758	-389.334295	404.066437	969.301348	-397.491494	434.873476	987.961983	-389.443486	430.595699	884.610601	-403.583963	480.746409	762.292861	-391.804381	473.271199	731.770744	-283.581209	314.618717	373.429729	-395.096968	345.678386	386.640451	-318.010186	243.905031	354.974368	-356.597488	441.468218	277.526685	-425.073566	429.870063	641.373113	-416.902015	417.212018	559.422242	-404.302001	364.967660	487.182895	-401.629845	440.722894	551.967877	-370.202090	527.581483	302.073900	-359.891607	-200.807560	919.232496	-229.656281	-10.415425	79.833915	-426.683033	-10.531888	80.079272	-28.398608	
753	3.7650	825.049574	1371.912013	-168.796697	772.605044	1356.486896	-476.076809	778.103042	1411.918624	-310.913282	762.100378	1250.932395	-311.155285	738.179527	1159.500067	12.414508	789.287420	887.219713	-52.234984	611.831095	1106.200277	-518.093452	783.750516	910.441278	-431.058478	217.053254	1258.223016	-160.758979	328.725956	1236.347507	-346.900365	416.765289	1226.797109	-45.560573	367.801171	1191.477417	-309.184991	408.432122	1161.030199	-83.071226	267.230579	1288.650350	-114.860052	244.508246	1298.159709	-206.491985	316.354631	1122.846582	8.537945	270.044224	1141.184604	-368.745849	391.603186	968.694868	-4.486327	445.501956	899.609977	-18.109632	456.118989	812.876466	-25.686758	474.134993	913.487001	-36.374125	481.600780	702.748460	-45.987085	448.533857	704.501353	-154.770560	359.956584	644.549762	-16.312689	305.390583	577.378657	-38.818809	224.225247	546.809307	-45.120841	324.442258	559.225200	-70.471441	120.006051	488.192401	-53.972522	148.840749	489.238750	-142.394081	60.309371	538.173310	-104.709504	191.626014	268.557800	-106.133391	123.301530	334.380800	-38.982345	336.645993	1020.563875	-389.126704	400.258631	961.513555	-397.096916	431.395228	979.648826	-389.374554	425.180394	876.226715	-402.340298	473.673252	753.398558	-390.139769	464.607606	723.740146	-282.313065	312.160058	362.951837	-394.833738	358.470590	387.008364	-325.054978	241.659916	344.480703	-356.404658	439.041211	266.699233	-424.796906	424.514522	632.031149	-415.420358	412.841905	549.788561	-403.182661	361.387850	476.989654	-400.423309	436.159078	542.649711	-368.683729	525.232338	290.818103	-359.585051	-200.898705	919.100714	-229.814004	-10.412705	79.786106	-426.722609	-10.504642	79.925642	-28.544007	
754	3.7700	824.199481	1371.711653	-167.202615	774.633527	1353.519442	-474.826969	778.727864	1410.201156	-309.769788	762.740658	1249.219130	-308.988980	736.613432	1159.430309	13.977092	788.353862	887.110978	-52.978756	613.249363	1104.139010	-519.736096	783.325951	909.186942	-431.185894	216.403302	1255.733157	-162.805639	329.483336	1232.192750	-348.765272	415.588760	1225.819288	-46.820830	367.768686	1187.331381	-310.460321	407.397304	1159.653291	-83.887898	266.052138	1286.880301	-116.418187	244.408338	1294.951373	-209.013446	315.383029	1121.923318	7.725047	269.314027	1135.756213	-369.364321	393.543589	968.807535	-3.627314	449.425610	901.329821	-17.564724	462.427760	815.175586	-25.576261	477.798627	916.189377	-35.703499	489.403940	706.109638	-47.261070	456.136203	707.733505	-155.603285	367.172096	649.846559	-16.875386	311.220698	583.684048	-39.420252	229.705209	554.772299	-45.422311	329.845897	565.257801	-71.255162	124.093828	498.402090	-54.491520	153.347377	499.381358	-143.092967	64.521484	548.831928	-104.778297	194.453934	278.606690	-106.450837	126.519739	344.714941	-39.172497	333.978978	1013.894190	-389.329387	396.440971	953.607843	-396.754476	427.892648	971.206337	-389.335177	419.769565	867.771503	-401.160932	466.727874	745.117837	-390.695323	455.738409	715.705648	-281.133874	309.017375	352.880026	-394.949949	355.070728	376.588854	-324.873719	238.799067	334.437996	-356.522145	435.987959	255.721749	-424.543531	418.788855	622.874816	-414.107671	407.940563	539.121901	-399.778874	357.360917	467.087671	-399.897166	431.019640	533.695335	-367.529000	522.261434	279.541924	-359.259255	-200.955721	919.031048	-229.831998	-10.444215	79.739927	-426.730854	-10.539517	79.905729	-28.538433	
755	3.7750	823.166992	1371.769245	-165.352202	776.643655	1350.749730	-473.294495	779.203922	1408.910375	-308.575253	763.017666	1247.963377	-306.524585	735.271262	1159.214094	15.393587	788.190225	887.194036	-52.980077	614.796194	1102.242803	-521.376257	782.950893	907.805073	-431.563661	214.932538	1253.926140	-165.123746	330.600021	1228.055207	-350.674785	414.015976	1225.292126	-48.248398	367.928817	1183.008502	-311.910658	406.176721	1158.480950	-84.707225	264.372235	1285.227034	-118.055848	244.334374	1291.841547	-212.117815	313.907913	1121.015895	6.759325	268.697350	1130.071135	-370.248605	395.791709	969.370392	-3.105253	453.667884	903.542352	-17.302275	468.694972	817.995496	-25.969411	481.623764	919.390591	-35.040653	497.273465	709.999012	-47.982247	464.015893	711.316343	-156.603191	374.535776	655.358646	-17.555135	317.420222	590.278422	-40.135993	235.255471	562.418852	-46.318186	335.464248	571.302149	-72.020499	128.790220	508.442059	-55.015777	157.956426	509.194176	-143.618269	69.132557	559.270978	-104.909894	198.002404	288.378817	-106.618876	130.431972	354.970601	-39.477084	331.391050	1007.101798	-389.557659	392.684044	945.516984	-396.482688	424.426960	962.655346	-389.271219	414.386220	859.298077	-400.022027	459.911505	736.132179	-388.580352	446.598114	707.715056	-280.064093	305.428736	342.838455	-395.111460	351.610122	366.550260	-325.178858	235.418223	324.631682	-356.971657	432.447055	244.833683	-424.259990	412.461260	614.077583	-413.396676	402.702261	530.074570	-399.214349	352.891586	457.449369	-399.881716	425.440013	524.800714	-366.658112	518.730484	268.435888	-358.943873	-200.930325	919.032201	-229.959921	-10.496678	79.701922	-426.730184	-10.549801	80.010283	-28.430831	
